<?xml version="1.0" encoding="utf-8"?>
<!-- Generator: Adobe Illustrator 16.0.3, SVG Export Plug-In . SVG Version: 6.00 Build 0)  -->
<!DOCTYPE svg PUBLIC "-//W3C//DTD SVG 1.1//EN" "http://www.w3.org/Graphics/SVG/1.1/DTD/svg11.dtd">
<svg version="1.1" id="Capa_1" xmlns="http://www.w3.org/2000/svg" xmlns:xlink="http://www.w3.org/1999/xlink" x="0px" y="0px"
	 width="640px" height="206px" viewBox="0 0 640 206" enable-background="new 0 0 640 206" xml:space="preserve">
<g>
	<path fill="#0F0F71" d="M105.972,154.723c-3.136,0-3.145-2.787-3.145-2.787l0.021-2.401c0.129-2.103-0.173-3.813-1.737-3.46
		c-0.522,0.117-3.515,1.451-4.001,1.615c-3.009,1.021-5.894,2.403-8.871,3.524c-17.656,6.162-30.99,8.161-47.241,4.218
		c-5.464-1.326-10.639-3.299-15.095-6.646c-14.514-10.897-15.497-32.261-0.49-43.556c8.005-6.024,17.283-8.856,26.876-11.244
		c14.172-3.525,30.198-4.353,44.686-5.531c5.583-0.454,7.013-3.124,4.482-8.076c-1.828-3.577-4.894-5.677-8.571-6.756
		c-11.601-3.404-21.841-3.603-33.408-0.219c-3.953,1.156-8.47,4.082-10.998,7.361c-3.028,3.928-4.594,3.972-7.852,3.929
		c-4.43-0.06-10.429,0-14.858,0c-3.621,0-3.865-2.154-2.586-6.281c1.765-5.699,5.214-10.349,9.938-14
		c7.897-6.104,17.063-8.826,26.79-10.351c15.744-2.469,31.212-1.424,46.399,3.208c13.963,4.259,21.11,14.297,21.563,28.515v63.17
		c0,4.433-0.34,5.767-3.463,5.767c-3.322,0.086-7.468-0.053-10.792,0C113.621,154.723,109.582,154.723,105.972,154.723z
		 M102.422,117.719c0-2.449,0.152-4.734,0.048-6.529c-0.299-5.155,0.778-6.401-4.241-6.121c-14,0.787-24.241,1.742-37.645,5.921
		c-3.697,1.151-11.211,3.81-13.821,6.872c-3.706,4.344-5.382,9.92-2.812,14.867c3.05,5.869,10.824,6.146,16.675,6.431
		c11.311,0.09,21.436-2.785,31.025-7.24C98.5,128.922,102.031,128.292,102.422,117.719z"/>
	<path fill="#0F0F71" d="M282.743,181.098c-4.961-0.654-10.525-2.539-15.345-4.559c-26.641-11.154-43.08-34.748-43.385-63.637
		c-0.01-0.971-0.001-1.939-0.001-2.909c0.484-25.499,9.572-46.709,31.223-61.358c11.09-7.504,23.674-11.425,36.834-13.14
		c12.946-1.686,25.972-1.665,38.965-0.103c5.868,0.705,6.909,1.716,7.041,7.526c0.09,4.013,0.091,8.036-0.062,12.046
		c-0.189,5.023-1.13,5.827-6.141,5.087c-12.155-1.792-24.256-1.933-36.367,0.466c-40.349,7.991-49.85,49.602-32.857,76.297
		c8.098,12.722,20.723,18.723,35.052,21.541c3.227,0.637,7.674,0.526,11.059,0.153L282.743,181.098z"/>
	<path fill="#0F0F71" d="M457.713,52.7c11.221,0.525,22.468,2.121,32.946,7.629c17.201,9.042,24.686,23.927,25.954,42.537
		c0.632,9.266-1.131,18.207-5.067,26.673c-4.464,9.605-11.812,16.572-21.264,20.73c-23.072,10.151-46.305,10.312-68.899-1.457
		c-15.867-8.261-22.796-22.485-23.706-39.774c-1.098-20.768,6.403-37.475,24.833-48.165C433.205,54.669,445.202,53.175,457.713,52.7
		z M457.989,72.816c-11.771-0.094-20.939,2.992-26.78,9.034c-8.884,9.195-11.172,26.489-5.16,38.464
		c2.865,5.705,6.691,10.263,12.559,13.291c8.585,4.431,17.488,4.615,26.688,3.3c13.354-1.907,22.822-10.657,25.15-23.91
		c1.931-10.999,1.117-21.583-6.926-30.392C476.651,75.08,467.699,72.944,457.989,72.816z"/>
	<path fill="#0F0F71" d="M529.659,86.577c-0.007-18.838-0.068-37.677,0.025-56.515c0.037-7.514,0.193-7.557,7.749-7.715
		c3.874-0.08,7.756,0.111,11.631,0.032c3.729-0.076,5.26,1.758,5.181,5.328c-0.045,2.075,0.057,4.154,0.057,6.231
		c-0.003,29.781-0.058,62.053,0.002,91.833c0,6.791-0.079,8.026,2.353,8.026c17.452,0,42.964,0.026,60.418,0.099
		c6.277,0.027,8.346,0.121,8.346,3.885c0,0.564,0,10.806,0,11.326c0,3.924-2.002,4.699-6.433,4.699
		c-24.793,0.125-54.843,0.021-79.638-0.043c-8.798-0.021-9.584-0.779-9.646-9.839C529.578,124.809,529.665,105.693,529.659,86.577z"
		/>
	<path fill="#0F0F71" d="M172.34,56.444c1.357,0.05,2.334,0.65,2.396,2.359l0.009,7.478c0,0.965,0.54,1.104,1.563,0.556
		c0.713-0.382,2.625-1.829,3.759-2.836c9.709-8.629,21.339-11.23,33.849-11.144c5.235,0.036,6.976-0.756,6.924,4.486
		c-0.042,4.281,0.082,12.343,0.001,16.63c-0.061,3.24-2.169,2.78-5.434,2.705c-5.669-0.132-11.341-0.574-17.016,0.02
		c-2.761,0.289-5.433,0.784-8.086,1.704c-11.25,3.902-15.887,12.086-15.845,23.578c0.051,13.983-0.021,30.063-0.078,44.045
		c0.043,8.149-0.243,7.75-6.485,7.688c-2.904,0.053-9.771-0.016-12.676,0c-3.946,0.021-5.112-0.14-5.443-3.849V60.833
		c0-2.18-0.525-4.388,2.655-4.388L172.34,56.444L172.34,56.444z"/>
	<path fill="#2286BA" d="M365.945,99.82h-61.188v21.73h42.977L311.1,154.96l0,0l-10.83,9.876l-17.526,16.186
		c16.964,4.193,34.589,2.004,34.589,2.004l48.614-44.307v36.584h21.729V121.55V99.82H365.945z"/>
</g>
</svg>
